<?xml version="1.0" encoding="UTF-8" standalone="no"?>
<!DOCTYPE svg PUBLIC "-//W3C//DTD SVG 1.1//EN"
 "http://www.w3.org/Graphics/SVG/1.1/DTD/svg11.dtd">
<!-- Generated by graphviz version 2.28.0 (20171202.0115)
 -->
<!-- Title: dag Pages: 1 -->
<svg width="413pt" height="490pt"
 viewBox="0.00 0.00 413.00 490.00" xmlns="http://www.w3.org/2000/svg" xmlns:xlink="http://www.w3.org/1999/xlink">
<g id="graph1" class="graph" transform="scale(1 1) rotate(0) translate(4 486)">
<title>dag</title>
<polygon fill="white" stroke="white" points="-4,5 -4,-486 410,-486 410,5 -4,5"/>
<!-- p0 -->
<g id="node1" class="node"><title>p0</title>
<ellipse fill="black" stroke="black" cx="139" cy="-478" rx="3.6" ry="3.6"/>
<text text-anchor="middle" x="674" y="-474.3" font-family="Times,serif" font-size="14.00">Channel.fromPath</text>
</g>
<!-- p4 -->
<g id="node2" class="node"><title>p4</title>
<ellipse fill="none" stroke="black" cx="208" cy="-404" rx="77.0154" ry="18"/>
<text text-anchor="middle" x="208" y="-400.3" font-family="Times,serif" font-size="14.00">seqkit_fetch_target</text>
</g>
<!-- p0&#45;&gt;p4 -->
<g id="edge2" class="edge"><title>p0&#45;&gt;p4</title>
<path fill="none" stroke="black" d="M140.991,-474.923C147.391,-468.245 167.994,-446.745 184.683,-429.331"/>
<polygon fill="black" stroke="black" points="187.618,-431.327 192.01,-421.685 182.564,-426.483 187.618,-431.327"/>
<text text-anchor="middle" x="182" y="-444.3" font-family="Times,serif" font-size="14.00">ref</text>
</g>
<!-- p6 -->
<g id="node10" class="node"><title>p6</title>
<ellipse fill="none" stroke="black" cx="287" cy="-296" rx="59.2173" ry="18"/>
<text text-anchor="middle" x="287" y="-292.3" font-family="Times,serif" font-size="14.00">primer3_conf</text>
</g>
<!-- p0&#45;&gt;p6 -->
<g id="edge14" class="edge"><title>p0&#45;&gt;p6</title>
<path fill="none" stroke="black" d="M142.534,-477.064C161.91,-477.202 255.786,-475.059 294,-422 314.5,-393.537 306.372,-351.284 297.563,-323.94"/>
<polygon fill="black" stroke="black" points="300.788,-322.556 294.212,-314.249 294.172,-324.844 300.788,-322.556"/>
<text text-anchor="middle" x="315" y="-400.3" font-family="Times,serif" font-size="14.00">ref</text>
</g>
<!-- p7 -->
<g id="node17" class="node"><title>p7</title>
<ellipse fill="none" stroke="black" cx="131" cy="-350" rx="62.0922" ry="18"/>
<text text-anchor="middle" x="131" y="-346.3" font-family="Times,serif" font-size="14.00">primer3_index</text>
</g>
<!-- p0&#45;&gt;p7 -->
<g id="edge18" class="edge"><title>p0&#45;&gt;p7</title>
<path fill="none" stroke="black" d="M137.946,-474.541C134.746,-466.92 125.164,-442.95 122,-422 119.611,-406.179 119.992,-401.873 122,-386 122.324,-383.44 122.776,-380.8 123.307,-378.17"/>
<polygon fill="black" stroke="black" points="126.75,-378.816 125.638,-368.28 119.937,-377.21 126.75,-378.816"/>
<text text-anchor="middle" x="139" y="-444.3" font-family="Times,serif" font-size="14.00">ref</text>
</g>
<!-- p10 -->
<g id="node22" class="node"><title>p10</title>
<ellipse fill="none" stroke="black" cx="89" cy="-60" rx="89.0632" ry="18"/>
<text text-anchor="middle" x="89" y="-56.3" font-family="Times,serif" font-size="14.00">seqkit_locate_primers</text>
</g>
<!-- p0&#45;&gt;p10 -->
<g id="edge26" class="edge"><title>p0&#45;&gt;p10</title>
<path fill="none" stroke="black" d="M135.772,-476.066C120.245,-471.358 54,-448.707 54,-405 54,-405 54,-405 54,-133 54,-116.4 61.6185,-99.617 69.7466,-86.4354"/>
<polygon fill="black" stroke="black" points="72.7733,-88.2037 75.3679,-77.9314 66.9337,-84.3436 72.7733,-88.2037"/>
<text text-anchor="middle" x="62" y="-248.3" font-family="Times,serif" font-size="14.00">ref</text>
</g>
<!-- p4&#45;&gt;p6 -->
<g id="edge10" class="edge"><title>p4&#45;&gt;p6</title>
<path fill="none" stroke="black" d="M220.693,-385.969C233.611,-368.636 253.771,-341.586 268.472,-321.86"/>
<polygon fill="black" stroke="black" points="271.43,-323.749 274.599,-313.639 265.817,-319.566 271.43,-323.749"/>
<text text-anchor="middle" x="275.5" y="-346.3" font-family="Times,serif" font-size="14.00">target</text>
</g>
<!-- p5 -->
<g id="node12" class="node"><title>p5</title>
<ellipse fill="black" stroke="black" cx="208" cy="-296" rx="1.8" ry="1.8"/>
</g>
<!-- p4&#45;&gt;p5 -->
<g id="edge12" class="edge"><title>p4&#45;&gt;p5</title>
<path fill="none" stroke="black" d="M208,-385.969C208,-364.065 208,-326.642 208,-308.094"/>
<polygon fill="black" stroke="black" points="211.5,-308.038 208,-298.038 204.5,-308.038 211.5,-308.038"/>
</g>
<!-- p1 -->
<g id="node4" class="node"><title>p1</title>
<ellipse fill="black" stroke="black" cx="375" cy="-478" rx="3.6" ry="3.6"/>
<text text-anchor="middle" x="655.5" y="-474.3" font-family="Times,serif" font-size="14.00">Channel.of</text>
</g>
<!-- p1&#45;&gt;p4 -->
<g id="edge8" class="edge"><title>p1&#45;&gt;p4</title>
<path fill="none" stroke="black" d="M372.101,-475.75C358.059,-469.696 296,-442.94 252.366,-424.128"/>
<polygon fill="black" stroke="black" points="253.654,-420.872 243.085,-420.126 250.882,-427.3 253.654,-420.872"/>
<text text-anchor="middle" x="335.5" y="-444.3" font-family="Times,serif" font-size="14.00">seq</text>
</g>
<!-- p2 -->
<g id="node5" class="node"><title>p2</title>
<ellipse fill="none" stroke="black" cx="396" cy="-404" rx="3.25" ry="3.5"/>
<text text-anchor="middle" x="640.5" y="-400.3" font-family="Times,serif" font-size="14.00">view</text>
</g>
<!-- p1&#45;&gt;p2 -->
<g id="edge4" class="edge"><title>p1&#45;&gt;p2</title>
<path fill="none" stroke="black" d="M375.798,-474.265C378.498,-465.005 387.411,-434.446 392.45,-417.172"/>
<polygon fill="black" stroke="black" points="395.849,-418.017 395.289,-407.437 389.129,-416.057 395.849,-418.017"/>
<text text-anchor="middle" x="395.5" y="-444.3" font-family="Times,serif" font-size="14.00">seq</text>
</g>
<!-- p3 -->
<g id="node7" class="node"><title>p3</title>
<ellipse fill="black" stroke="black" cx="396" cy="-296" rx="1.8" ry="1.8"/>
</g>
<!-- p2&#45;&gt;p3 -->
<g id="edge6" class="edge"><title>p2&#45;&gt;p3</title>
<path fill="none" stroke="black" d="M396,-400.38C396,-387.707 396,-332.4 396,-308.297"/>
<polygon fill="black" stroke="black" points="399.5,-307.982 396,-297.982 392.5,-307.982 399.5,-307.982"/>
</g>
<!-- p8 -->
<g id="node15" class="node"><title>p8</title>
<ellipse fill="none" stroke="black" cx="169" cy="-208" rx="57.2688" ry="18"/>
<text text-anchor="middle" x="169" y="-204.3" font-family="Times,serif" font-size="14.00">primer3_calc</text>
</g>
<!-- p6&#45;&gt;p8 -->
<g id="edge16" class="edge"><title>p6&#45;&gt;p8</title>
<path fill="none" stroke="black" d="M265.357,-279.226C246.761,-265.673 219.754,-245.99 199.061,-230.909"/>
<polygon fill="black" stroke="black" points="201.048,-228.026 190.905,-224.965 196.925,-233.683 201.048,-228.026"/>
</g>
<!-- p9 -->
<g id="node20" class="node"><title>p9</title>
<ellipse fill="none" stroke="black" cx="169" cy="-134" rx="87.1385" ry="18"/>
<text text-anchor="middle" x="169" y="-130.3" font-family="Times,serif" font-size="14.00">primer3_results2fasta</text>
</g>
<!-- p8&#45;&gt;p9 -->
<g id="edge22" class="edge"><title>p8&#45;&gt;p9</title>
<path fill="none" stroke="black" d="M169,-189.937C169,-181.807 169,-171.876 169,-162.705"/>
<polygon fill="black" stroke="black" points="172.5,-162.441 169,-152.441 165.5,-162.441 172.5,-162.441"/>
</g>
<!-- p7&#45;&gt;p8 -->
<g id="edge20" class="edge"><title>p7&#45;&gt;p8</title>
<path fill="none" stroke="black" d="M135.66,-331.833C142.155,-307.902 153.997,-264.276 161.678,-235.975"/>
<polygon fill="black" stroke="black" points="165.061,-236.875 164.302,-226.307 158.305,-235.041 165.061,-236.875"/>
</g>
<!-- p9&#45;&gt;p10 -->
<g id="edge24" class="edge"><title>p9&#45;&gt;p10</title>
<path fill="none" stroke="black" d="M150.445,-116.301C140.019,-106.917 126.834,-95.0504 115.353,-84.7173"/>
<polygon fill="black" stroke="black" points="117.506,-81.9462 107.731,-77.8581 112.823,-87.1493 117.506,-81.9462"/>
</g>
<!-- p11 -->
<g id="node25" class="node"><title>p11</title>
<ellipse fill="black" stroke="black" cx="89" cy="-2" rx="1.8" ry="1.8"/>
</g>
<!-- p10&#45;&gt;p11 -->
<g id="edge28" class="edge"><title>p10&#45;&gt;p11</title>
<path fill="none" stroke="black" d="M89,-41.8939C89,-32.8876 89,-22.0999 89,-14.1727"/>
<polygon fill="black" stroke="black" points="92.5001,-13.9957 89,-3.99575 85.5001,-13.9958 92.5001,-13.9957"/>
</g>
</g>
</svg>
