<?xml version="1.0" encoding="UTF-8" standalone="no"?>
<!DOCTYPE svg PUBLIC "-//W3C//DTD SVG 1.1//EN"
 "http://www.w3.org/Graphics/SVG/1.1/DTD/svg11.dtd">
<!-- Generated by graphviz version 2.28.0 (20171202.0115)
 -->
<!-- Title: dag Pages: 1 -->
<svg width="360pt" height="402pt"
 viewBox="0.00 0.00 360.00 402.00" xmlns="http://www.w3.org/2000/svg" xmlns:xlink="http://www.w3.org/1999/xlink">
<g id="graph1" class="graph" transform="scale(1 1) rotate(0) translate(4 398)">
<title>dag</title>
<polygon fill="white" stroke="white" points="-4,5 -4,-398 357,-398 357,5 -4,5"/>
<!-- p0 -->
<g id="node1" class="node"><title>p0</title>
<ellipse fill="black" stroke="black" cx="139" cy="-390" rx="3.6" ry="3.6"/>
<text text-anchor="middle" x="586" y="-386.3" font-family="Times,serif" font-size="14.00">Channel.fromPath</text>
</g>
<!-- p4 -->
<g id="node2" class="node"><title>p4</title>
<ellipse fill="none" stroke="black" cx="250" cy="-316" rx="77.0154" ry="18"/>
<text text-anchor="middle" x="250" y="-312.3" font-family="Times,serif" font-size="14.00">seqkit_fetch_target</text>
</g>
<!-- p0&#45;&gt;p4 -->
<g id="edge2" class="edge"><title>p0&#45;&gt;p4</title>
<path fill="none" stroke="black" d="M141.744,-387.22C151.956,-380.596 188.607,-356.822 216.461,-338.755"/>
<polygon fill="black" stroke="black" points="218.665,-341.497 225.15,-333.119 214.856,-335.625 218.665,-341.497"/>
<text text-anchor="middle" x="203" y="-356.3" font-family="Times,serif" font-size="14.00">ref</text>
</g>
<!-- p6 -->
<g id="node10" class="node"><title>p6</title>
<ellipse fill="none" stroke="black" cx="149" cy="-208" rx="59.2173" ry="18"/>
<text text-anchor="middle" x="149" y="-204.3" font-family="Times,serif" font-size="14.00">primer3_conf</text>
</g>
<!-- p0&#45;&gt;p6 -->
<g id="edge14" class="edge"><title>p0&#45;&gt;p6</title>
<path fill="none" stroke="black" d="M139.157,-386.173C140.093,-369.32 144.982,-281.318 147.499,-236.015"/>
<polygon fill="black" stroke="black" points="150.995,-236.18 148.055,-226.001 144.006,-235.792 150.995,-236.18"/>
<text text-anchor="middle" x="152" y="-312.3" font-family="Times,serif" font-size="14.00">ref</text>
</g>
<!-- p7 -->
<g id="node17" class="node"><title>p7</title>
<ellipse fill="none" stroke="black" cx="62" cy="-262" rx="62.0922" ry="18"/>
<text text-anchor="middle" x="62" y="-258.3" font-family="Times,serif" font-size="14.00">primer3_index</text>
</g>
<!-- p0&#45;&gt;p7 -->
<g id="edge18" class="edge"><title>p0&#45;&gt;p7</title>
<path fill="none" stroke="black" d="M136.136,-387.663C130.306,-384.813 116.936,-377.607 109,-368 89.8064,-344.767 76.9105,-312.443 69.5564,-289.817"/>
<polygon fill="black" stroke="black" points="72.87,-288.686 66.5648,-280.171 66.1842,-290.759 72.87,-288.686"/>
<text text-anchor="middle" x="117" y="-356.3" font-family="Times,serif" font-size="14.00">ref</text>
</g>
<!-- p4&#45;&gt;p6 -->
<g id="edge10" class="edge"><title>p4&#45;&gt;p6</title>
<path fill="none" stroke="black" d="M233.14,-298.388C227.344,-292.612 220.845,-286.062 215,-280 200.158,-264.606 183.79,-247.002 171.067,-233.175"/>
<polygon fill="black" stroke="black" points="173.377,-230.515 164.036,-225.515 168.22,-235.249 173.377,-230.515"/>
<text text-anchor="middle" x="230.5" y="-258.3" font-family="Times,serif" font-size="14.00">target</text>
</g>
<!-- p5 -->
<g id="node12" class="node"><title>p5</title>
<ellipse fill="black" stroke="black" cx="250" cy="-208" rx="1.8" ry="1.8"/>
</g>
<!-- p4&#45;&gt;p5 -->
<g id="edge12" class="edge"><title>p4&#45;&gt;p5</title>
<path fill="none" stroke="black" d="M250,-297.969C250,-276.065 250,-238.642 250,-220.094"/>
<polygon fill="black" stroke="black" points="253.5,-220.038 250,-210.038 246.5,-220.038 253.5,-220.038"/>
</g>
<!-- p1 -->
<g id="node4" class="node"><title>p1</title>
<ellipse fill="black" stroke="black" cx="299" cy="-390" rx="3.6" ry="3.6"/>
<text text-anchor="middle" x="570.5" y="-386.3" font-family="Times,serif" font-size="14.00">Channel.of</text>
</g>
<!-- p1&#45;&gt;p4 -->
<g id="edge8" class="edge"><title>p1&#45;&gt;p4</title>
<path fill="none" stroke="black" d="M297.37,-386.604C292.703,-379.747 278.889,-359.449 267.375,-342.531"/>
<polygon fill="black" stroke="black" points="270.144,-340.378 261.624,-334.08 264.357,-344.316 270.144,-340.378"/>
<text text-anchor="middle" x="294.5" y="-356.3" font-family="Times,serif" font-size="14.00">seq</text>
</g>
<!-- p2 -->
<g id="node5" class="node"><title>p2</title>
<ellipse fill="none" stroke="black" cx="349" cy="-316" rx="3.25" ry="3.5"/>
<text text-anchor="middle" x="587.5" y="-312.3" font-family="Times,serif" font-size="14.00">view</text>
</g>
<!-- p1&#45;&gt;p2 -->
<g id="edge4" class="edge"><title>p1&#45;&gt;p2</title>
<path fill="none" stroke="black" d="M300.664,-386.604C306.95,-377.552 329.506,-345.072 341.452,-327.869"/>
<polygon fill="black" stroke="black" points="344.45,-329.689 347.279,-319.478 338.7,-325.696 344.45,-329.689"/>
<text text-anchor="middle" x="333.5" y="-356.3" font-family="Times,serif" font-size="14.00">seq</text>
</g>
<!-- p3 -->
<g id="node7" class="node"><title>p3</title>
<ellipse fill="black" stroke="black" cx="349" cy="-208" rx="1.8" ry="1.8"/>
</g>
<!-- p2&#45;&gt;p3 -->
<g id="edge6" class="edge"><title>p2&#45;&gt;p3</title>
<path fill="none" stroke="black" d="M349,-312.38C349,-299.707 349,-244.4 349,-220.297"/>
<polygon fill="black" stroke="black" points="352.5,-219.982 349,-209.982 345.5,-219.982 352.5,-219.982"/>
</g>
<!-- p8 -->
<g id="node15" class="node"><title>p8</title>
<ellipse fill="none" stroke="black" cx="90" cy="-134" rx="57.2688" ry="18"/>
<text text-anchor="middle" x="90" y="-130.3" font-family="Times,serif" font-size="14.00">primer3_calc</text>
</g>
<!-- p6&#45;&gt;p8 -->
<g id="edge16" class="edge"><title>p6&#45;&gt;p8</title>
<path fill="none" stroke="black" d="M135.316,-190.301C127.795,-181.123 118.327,-169.568 109.992,-159.397"/>
<polygon fill="black" stroke="black" points="112.655,-157.125 103.61,-151.609 107.241,-161.562 112.655,-157.125"/>
</g>
<!-- p9 -->
<g id="node20" class="node"><title>p9</title>
<ellipse fill="none" stroke="black" cx="90" cy="-60" rx="87.1385" ry="18"/>
<text text-anchor="middle" x="90" y="-56.3" font-family="Times,serif" font-size="14.00">primer3_results2fasta</text>
</g>
<!-- p8&#45;&gt;p9 -->
<g id="edge22" class="edge"><title>p8&#45;&gt;p9</title>
<path fill="none" stroke="black" d="M90,-115.937C90,-107.807 90,-97.8761 90,-88.7047"/>
<polygon fill="black" stroke="black" points="93.5001,-88.4406 90,-78.4407 86.5001,-88.4407 93.5001,-88.4406"/>
</g>
<!-- p7&#45;&gt;p8 -->
<g id="edge20" class="edge"><title>p7&#45;&gt;p8</title>
<path fill="none" stroke="black" d="M65.7762,-244.007C70.4522,-222.965 78.4739,-186.867 83.9971,-162.013"/>
<polygon fill="black" stroke="black" points="87.4415,-162.647 86.1942,-152.126 80.6082,-161.129 87.4415,-162.647"/>
</g>
<!-- p10 -->
<g id="node22" class="node"><title>p10</title>
<ellipse fill="black" stroke="black" cx="90" cy="-2" rx="1.8" ry="1.8"/>
</g>
<!-- p9&#45;&gt;p10 -->
<g id="edge24" class="edge"><title>p9&#45;&gt;p10</title>
<path fill="none" stroke="black" d="M90,-41.8939C90,-32.8876 90,-22.0999 90,-14.1727"/>
<polygon fill="black" stroke="black" points="93.5001,-13.9957 90,-3.99575 86.5001,-13.9958 93.5001,-13.9957"/>
</g>
</g>
</svg>
